<?xml version="1.0" encoding="iso-8859-1"?>
<!-- Generator: Adobe Illustrator 18.1.1, SVG Export Plug-In . SVG Version: 6.00 Build 0)  -->
<svg version="1.1" id="Capa_1" xmlns="http://www.w3.org/2000/svg" xmlns:xlink="http://www.w3.org/1999/xlink" x="0px" y="0px"
	 width="65" height="65" viewBox="0 0 95.262 95.262" style="enable-background:new 0 0 95.262 95.262;" xml:space="preserve">
<g>
	<path style="fill:#a6a9b0;" d="M49.857,49.853h19.83c-0.122,2.083-0.433,4.151-0.841,6.206c-3.242,3.529-7.054,6.785-11.363,9.631
		h-7.627V49.853z M66.295,29.568H49.857v15.836h19.877C69.523,40.015,68.37,34.69,66.295,29.568z M45.405,71.942v-1.797H31.548
		c0.891,1.636,1.89,3.242,2.967,4.835C38.133,74.347,41.772,73.341,45.405,71.942z M45.405,29.568H28.967
		c-2.076,5.125-3.228,10.447-3.439,15.836h19.877C45.405,45.405,45.405,29.568,45.405,29.568z M45.405,49.853h-19.83
		c0.319,5.368,1.6,10.69,3.811,15.84h16.019V49.853z M49.857,6.828v18.284h14.376C60.891,18.678,56.059,12.533,49.857,6.828z
		 M29.622,75.603c-1.127-1.797-2.176-3.611-3.085-5.451H12.662c1.07,1.657,2.283,3.189,3.543,4.656
		C20.425,75.714,24.952,75.983,29.622,75.603z M76.491,45.401c2.795-5.171,4.527-10.554,5.021-15.836H71.054
		c1.89,5.146,2.938,10.465,3.124,15.836C74.179,45.401,76.491,45.401,76.491,45.401z M81.533,23.62
		C75.492,15.096,66.545,9.13,56.342,6.957c5.572,5.733,9.892,11.832,12.87,18.156H81.68C81.659,24.605,81.573,24.118,81.533,23.62z
		 M45.405,6.828c-6.209,5.708-11.037,11.853-14.376,18.284h14.376V6.828z M55.186,88.537c11.295-2.069,21.151-8.675,27.414-18.392
		H68.725C65.554,76.591,61.002,82.765,55.186,88.537z M11.574,73.517C6.317,66.216,3.182,57.29,3.182,47.627
		c0-24.508,19.934-44.449,44.449-44.449c13.045,0,24.741,5.676,32.882,14.645c-0.684-2.366-1.682-4.642-2.992-6.796
		c-0.197-0.311-0.419-0.594-0.623-0.895C68.814,3.808,58.668,0,47.631,0C21.366,0,0,21.366,0,47.631
		c0,8.571,2.308,16.599,6.284,23.556C7.956,72.096,9.72,72.88,11.574,73.517z M95.262,47.631c0,26.262-21.366,47.631-47.631,47.631
		c-15.761,0-29.747-7.712-38.423-19.551c-2.881-1.993-5.408-4.402-7.43-7.279c12.505,12.383,36.132,13.227,56.449,0.981
		C81.175,55.583,91.2,30.306,80.603,12.959c-2.18-3.575-5.103-6.496-8.514-8.818c5.529,2.588,10.168,6.46,13.331,11.635
		c1.503,2.455,2.552,5.075,3.271,7.791C92.857,30.631,95.262,38.845,95.262,47.631z M92.08,47.631c0-5.057-0.866-9.906-2.441-14.434
		c-0.111,2.387-0.49,4.799-1.092,7.215c0.293,1.643,0.523,3.303,0.608,4.993h-2.154c-0.576,1.492-1.22,2.981-1.965,4.452h4.116
		c-0.293,5.551-1.657,10.876-4.062,15.84H72.776c-3.049,2.788-6.424,5.375-10.185,7.644c-0.404,0.247-0.82,0.447-1.231,0.68
		c-3.056,4.692-6.893,9.205-11.517,13.464v-8.253c-1.485,0.497-2.97,0.938-4.452,1.306v6.939c-2.054-1.893-3.897-3.851-5.651-5.837
		c-1.814,0.265-3.604,0.433-5.386,0.515c1.754,2.169,3.618,4.309,5.708,6.378c-6.045-1.106-11.653-3.554-16.531-7.054
		c-2.258-0.412-4.42-1.006-6.488-1.761c7.977,7.619,18.71,12.358,30.581,12.358C72.146,92.08,92.08,72.139,92.08,47.631z
		 M38.92,6.954c-10.805,2.301-20.238,8.815-26.269,18.156H26.05C29.039,18.785,33.358,12.687,38.92,6.954z M10.157,65.693h14.405
		c-2.008-5.15-3.164-10.472-3.457-15.84H6.095C6.399,55.404,7.752,60.73,10.157,65.693z M6.102,45.401h14.977
		c0.186-5.372,1.235-10.694,3.124-15.836H10.157C7.752,34.529,6.399,39.858,6.102,45.401z"/>
</g>
<g>
</g>
<g>
</g>
<g>
</g>
<g>
</g>
<g>
</g>
<g>
</g>
<g>
</g>
<g>
</g>
<g>
</g>
<g>
</g>
<g>
</g>
<g>
</g>
<g>
</g>
<g>
</g>
<g>
</g>
</svg>
