<?xml version="1.0" encoding="iso-8859-1"?>
<!-- Generator: Adobe Illustrator 18.1.1, SVG Export Plug-In . SVG Version: 6.00 Build 0)  -->
<svg version="1.1" id="Capa_1" xmlns="http://www.w3.org/2000/svg" xmlns:xlink="http://www.w3.org/1999/xlink" x="0px" y="0px"
	 width="29" height="29" viewBox="0 0 470.311 470.311" style="enable-background:new 0 0 470.311 470.311;" xml:space="preserve">
<g>
	<g>
		<g>
			<path style="fill:#a6a9b0;" d="M449.864,113.768c-1.991-3.495-5.324-5.422-9.38-5.422c-17.615,0-58.241-26.524-97.543-52.161
				C298.672,27.304,256.851,0,234.156,0c-23.955,0-72.905,31.173-120.335,61.371c-36.245,23.101-73.742,46.975-85.992,46.975
				c-3.422,0-6.324,1.756-7.95,4.828c-1.065,2-1.585,4.544-1.585,7.73c0,45.349,143.469,349.407,215.862,349.407
				c68.345,0,217.862-290.905,217.862-346.537C452.018,119.563,451.327,116.296,449.864,113.768z M263.224,97.99l-5.682,195.313
				H212.77l-0.024-0.967L207.088,97.99C207.088,97.99,263.224,97.99,263.224,97.99z M235.156,382.035
				c-18.119,0-31.766-14.095-31.766-32.839c0-18.777,13.648-32.872,31.766-32.872c18.72,0,31.775,13.493,31.775,32.872
				C266.922,368.241,253.567,382.035,235.156,382.035z"/>
		</g>
	</g>
</g>
<g>
</g>
<g>
</g>
<g>
</g>
<g>
</g>
<g>
</g>
<g>
</g>
<g>
</g>
<g>
</g>
<g>
</g>
<g>
</g>
<g>
</g>
<g>
</g>
<g>
</g>
<g>
</g>
<g>
</g>
</svg>
